<?xml version="1.0" encoding="UTF-8" standalone="no"?>
<!DOCTYPE svg PUBLIC "-//W3C//DTD SVG 1.1//EN"
 "http://www.w3.org/Graphics/SVG/1.1/DTD/svg11.dtd">
<!-- Generated by graphviz version 12.1.2 (20240928.0832)
 -->
<!-- Title: pokemondb Pages: 1 -->
<svg width="820pt" height="438pt"
 viewBox="0.00 0.00 820.36 438.00" xmlns="http://www.w3.org/2000/svg" xmlns:xlink="http://www.w3.org/1999/xlink">
<g id="graph0" class="graph" transform="scale(1 1) rotate(0) translate(4 434)">
<title>pokemondb</title>
<polygon fill="white" stroke="none" points="-4,4 -4,-434 816.36,-434 816.36,4 -4,4"/>
<!-- public.flyway_schema_history -->
<g id="node1" class="node">
<title>public.flyway_schema_history</title>
<polygon fill="#efefef" stroke="none" points="43.2,-351.2 43.2,-386.8 403.14,-386.8 403.14,-351.2 43.2,-351.2"/>
<polygon fill="none" stroke="black" points="43.2,-351.2 43.2,-386.8 403.14,-386.8 403.14,-351.2 43.2,-351.2"/>
<text text-anchor="start" x="50.2" y="-364.6" font-family="Arial Bold" font-size="18.00">public.flyway_schema_history</text>
<text text-anchor="start" x="271.65" y="-364.6" font-family="Arial" font-size="14.00">    </text>
<text text-anchor="start" x="302.77" y="-364.6" font-family="Arial" font-size="14.00" fill="#666666">[BASE TABLE]</text>
<polygon fill="none" stroke="black" points="43.2,-320.4 43.2,-351.2 403.14,-351.2 403.14,-320.4 43.2,-320.4"/>
<text text-anchor="start" x="50.2" y="-332.6" font-family="Arial" font-size="14.00">installed_rank </text>
<text text-anchor="start" x="140.48" y="-332.6" font-family="Arial" font-size="14.00" fill="#666666">[integer]</text>
<polygon fill="none" stroke="black" points="43.2,-289.6 43.2,-320.4 403.14,-320.4 403.14,-289.6 43.2,-289.6"/>
<text text-anchor="start" x="50.2" y="-301.8" font-family="Arial" font-size="14.00">version </text>
<text text-anchor="start" x="99.22" y="-301.8" font-family="Arial" font-size="14.00" fill="#666666">[varchar(50)]</text>
<polygon fill="none" stroke="black" points="43.2,-258.8 43.2,-289.6 403.14,-289.6 403.14,-258.8 43.2,-258.8"/>
<text text-anchor="start" x="50.2" y="-271" font-family="Arial" font-size="14.00">description </text>
<text text-anchor="start" x="121.79" y="-271" font-family="Arial" font-size="14.00" fill="#666666">[varchar(200)]</text>
<polygon fill="none" stroke="black" points="43.2,-228 43.2,-258.8 403.14,-258.8 403.14,-228 43.2,-228"/>
<text text-anchor="start" x="50.2" y="-240.2" font-family="Arial" font-size="14.00">type </text>
<text text-anchor="start" x="80.55" y="-240.2" font-family="Arial" font-size="14.00" fill="#666666">[varchar(20)]</text>
<polygon fill="none" stroke="black" points="43.2,-197.2 43.2,-228 403.14,-228 403.14,-197.2 43.2,-197.2"/>
<text text-anchor="start" x="50.2" y="-209.4" font-family="Arial" font-size="14.00">script </text>
<text text-anchor="start" x="87.54" y="-209.4" font-family="Arial" font-size="14.00" fill="#666666">[varchar(1000)]</text>
<polygon fill="none" stroke="black" points="43.2,-166.4 43.2,-197.2 403.14,-197.2 403.14,-166.4 43.2,-166.4"/>
<text text-anchor="start" x="50.2" y="-178.6" font-family="Arial" font-size="14.00">checksum </text>
<text text-anchor="start" x="117.11" y="-178.6" font-family="Arial" font-size="14.00" fill="#666666">[integer]</text>
<polygon fill="none" stroke="black" points="43.2,-135.6 43.2,-166.4 403.14,-166.4 403.14,-135.6 43.2,-135.6"/>
<text text-anchor="start" x="50.2" y="-147.8" font-family="Arial" font-size="14.00">installed_by </text>
<text text-anchor="start" x="128.03" y="-147.8" font-family="Arial" font-size="14.00" fill="#666666">[varchar(100)]</text>
<polygon fill="none" stroke="black" points="43.2,-104.8 43.2,-135.6 403.14,-135.6 403.14,-104.8 43.2,-104.8"/>
<text text-anchor="start" x="50.2" y="-117" font-family="Arial" font-size="14.00">installed_on </text>
<text text-anchor="start" x="128.81" y="-117" font-family="Arial" font-size="14.00" fill="#666666">[timestamp without time zone]</text>
<polygon fill="none" stroke="black" points="43.2,-74 43.2,-104.8 403.14,-104.8 403.14,-74 43.2,-74"/>
<text text-anchor="start" x="50.2" y="-86.2" font-family="Arial" font-size="14.00">execution_time </text>
<text text-anchor="start" x="148.25" y="-86.2" font-family="Arial" font-size="14.00" fill="#666666">[integer]</text>
<polygon fill="none" stroke="black" points="43.2,-43.2 43.2,-74 403.14,-74 403.14,-43.2 43.2,-43.2"/>
<text text-anchor="start" x="50.2" y="-55.4" font-family="Arial" font-size="14.00">success </text>
<text text-anchor="start" x="104.66" y="-55.4" font-family="Arial" font-size="14.00" fill="#666666">[boolean]</text>
</g>
<!-- public.pokemons -->
<g id="node2" class="node">
<title>public.pokemons</title>
<polygon fill="#efefef" stroke="none" points="507.18,-274.2 507.18,-309.8 769.16,-309.8 769.16,-274.2 507.18,-274.2"/>
<polygon fill="none" stroke="black" points="507.18,-274.2 507.18,-309.8 769.16,-309.8 769.16,-274.2 507.18,-274.2"/>
<text text-anchor="start" x="514.18" y="-287.6" font-family="Arial Bold" font-size="18.00">public.pokemons</text>
<text text-anchor="start" x="637.67" y="-287.6" font-family="Arial" font-size="14.00">    </text>
<text text-anchor="start" x="668.78" y="-287.6" font-family="Arial" font-size="14.00" fill="#666666">[BASE TABLE]</text>
<polygon fill="none" stroke="black" points="507.18,-243.4 507.18,-274.2 769.16,-274.2 769.16,-243.4 507.18,-243.4"/>
<text text-anchor="start" x="514.18" y="-255.6" font-family="Arial" font-size="14.00">id </text>
<text text-anchor="start" x="528.97" y="-255.6" font-family="Arial" font-size="14.00" fill="#666666">[integer]</text>
<polygon fill="none" stroke="black" points="507.18,-212.6 507.18,-243.4 769.16,-243.4 769.16,-212.6 507.18,-212.6"/>
<text text-anchor="start" x="514.18" y="-224.8" font-family="Arial" font-size="14.00">name </text>
<text text-anchor="start" x="553.09" y="-224.8" font-family="Arial" font-size="14.00" fill="#666666">[varchar(100)]</text>
<polygon fill="none" stroke="black" points="507.18,-181.8 507.18,-212.6 769.16,-212.6 769.16,-181.8 507.18,-181.8"/>
<text text-anchor="start" x="514.18" y="-194" font-family="Arial" font-size="14.00">genus </text>
<text text-anchor="start" x="556.22" y="-194" font-family="Arial" font-size="14.00" fill="#666666">[varchar(100)]</text>
<polygon fill="none" stroke="black" points="507.18,-151 507.18,-181.8 769.16,-181.8 769.16,-151 507.18,-151"/>
<text text-anchor="start" x="514.18" y="-163.2" font-family="Arial" font-size="14.00">height </text>
<text text-anchor="start" x="556.22" y="-163.2" font-family="Arial" font-size="14.00" fill="#666666">[numeric(5,2)]</text>
<polygon fill="none" stroke="black" points="507.18,-120.2 507.18,-151 769.16,-151 769.16,-120.2 507.18,-120.2"/>
<text text-anchor="start" x="514.18" y="-132.4" font-family="Arial" font-size="14.00">weight </text>
<text text-anchor="start" x="558.54" y="-132.4" font-family="Arial" font-size="14.00" fill="#666666">[numeric(5,2)]</text>
</g>
</g>
</svg>
